<svg xmlns="http://www.w3.org/2000/svg" width="17.988" height="13.966" viewBox="0 0 17.988 13.966"><path fill="#FFF" d="M14.914 1.814C16.11.816 15.816 0 14.257 0H3.73c-1.56 0-1.853.816-.656 1.814l3.742 3.118c1.197.998 3.158.998 4.355 0l3.744-3.118z"/><path fill="#FFF" d="M11.913 7.044A209.809 209.809 0 0 1 9.695 8.88l-.02.013a1.048 1.048 0 0 1-.235.136c-.033.014-.066.033-.1.047-.11.034-.223.058-.335.06h-.022a1.257 1.257 0 0 1-.335-.06c-.034-.014-.068-.033-.1-.048a1.075 1.075 0 0 1-.235-.137l-.02-.013c-.022-.012-1.02-.838-2.218-1.836L2.178 3.796C.978 2.798 0 3.256 0 4.816v6.315a2.843 2.843 0 0 0 2.835 2.836h12.318a2.842 2.842 0 0 0 2.835-2.835V4.817c0-1.56-.98-2.018-2.178-1.02l-3.897 3.248z"/></svg>