<svg version="1" xmlns="http://www.w3.org/2000/svg" width="12.545" height="11.99" viewBox="521.939 473.064 12.545 11.99"><path d="M528.174 485.055a.73.73 0 0 1-.552-.25c-3.798-4.323-4.644-5.297-4.858-5.57h-.004a3.866 3.866 0 0 1-.82-2.374 3.802 3.802 0 0 1 3.798-3.798c.934 0 1.804.32 2.484.898a3.847 3.847 0 0 1 2.463-.898c2.095 0 3.8 1.704 3.8 3.8 0 .908-.32 1.753-.897 2.38l-4.86 5.56a.73.73 0 0 1-.554.253zm-4.245-6.706c.207.254 2.47 2.838 4.242 4.857l4.323-4.944c.34-.37.52-.86.52-1.4a2.333 2.333 0 0 0-2.33-2.33c-.73 0-1.42.344-1.9.943a.76.76 0 0 1-.585.275.722.722 0 0 1-.575-.293 2.333 2.333 0 0 0-1.887-.925 2.333 2.333 0 0 0-2.33 2.33c0 .68.275 1.172.507 1.468.004.006.01.012.014.02z"/></svg>