<svg xmlns="http://www.w3.org/2000/svg" width="19.697" height="19.696" viewBox="0 0 19.697 19.696"><path fill="#FFF" d="M9.848 0C6.34 0 2.823.628 1.546 1.878.488 2.918.134 4.752.016 5.913c0 0-.016.115-.016.165 0 .454.37.82.82.82.053 0 2.027-.16 3.217-.26a.408.408 0 0 0 .086-.016.82.82 0 0 0 .8-.82l.004-1.616c0-.5.407-.902.907-.902h8.027c.5 0 .908.402.908.902l.003 1.617c0 .447.357.808.803.82.027.01.056.013.085.017 1.19.098 3.164.26 3.217.26.45 0 .822-.367.822-.82 0-.05-.018-.166-.018-.166-.12-1.16-.473-2.995-1.53-4.035C16.872.627 13.355 0 9.847 0zm0 10.67a1.64 1.64 0 1 0 0 3.28 1.64 1.64 0 1 0 0-3.28zM8.616 6.975V5.95a1.025 1.025 0 0 0-2.048.001v1.025L1.03 12.888c-.382.376-.62.894-.62 1.47v1.646c0 .907.735 1.643 1.642 1.643h.41v1.023a1.026 1.026 0 1 0 2.05 0v-1.023h10.67v1.023a1.025 1.025 0 1 0 2.05 0v-1.023h.41c.906 0 1.64-.735 1.64-1.643v-1.646c0-.576-.235-1.094-.617-1.47L13.13 6.975V5.95a1.026 1.026 0 0 0-2.051.001v1.025H8.615zm1.232 2.053c1.814 0 3.282 1.468 3.282 3.282a3.28 3.28 0 1 1-6.562 0 3.279 3.279 0 0 1 3.28-3.282z"/></svg>