<svg xmlns="http://www.w3.org/2000/svg" width="42.084" height="47.041" viewBox="0 0 42.084 47.041"><path fill="#A4C639" d="M34.144 14.01h-26.2c-.008.11-.017.22-.017.332v18.755c0 1.926 1.457 3.49 3.316 3.627v7.43a2.886 2.886 0 0 0 5.77-.001v-7.42h8.058v7.42a2.885 2.885 0 1 0 5.772-.001V36.72c1.858-.137 3.315-1.7 3.315-3.627v-18.75c0-.114-.004-.224-.013-.334zM2.886 15.68a2.885 2.885 0 0 1 2.886 2.884v12.378a2.885 2.885 0 1 1-5.772 0V18.564a2.885 2.885 0 0 1 2.886-2.885zm36.312 0a2.884 2.884 0 0 1 2.886 2.884v12.378a2.884 2.884 0 0 1-2.886 2.886 2.884 2.884 0 0 1-2.885-2.886V18.564a2.884 2.884 0 0 1 2.885-2.885zM8.03 11.967h26.026c-.04-2.783-1.234-5.322-3.187-7.275L33.314.457a.309.309 0 0 0-.112-.415.305.305 0 0 0-.415.11L30.416 4.26c-2.052-1.853-6.25-3.4-9.374-3.4-3.016 0-7.322 1.547-9.374 3.4L9.296.152a.303.303 0 0 0-.525.304l2.445 4.235c-1.95 1.955-3.147 4.494-3.185 7.277zm17.293-5.163c-.002-.805.664-1.46 1.488-1.462.827-.002 1.495.648 1.5 1.454v.008c0 .805-.665 1.46-1.49 1.462-.824.002-1.494-.65-1.497-1.454v-.008zm-11.143 0c0-.805.665-1.46 1.49-1.462.823-.002 1.493.648 1.496 1.454v.008c.002.805-.664 1.46-1.488 1.462-.825.002-1.495-.65-1.498-1.454v-.008z"/></svg>