<svg version="1" xmlns="http://www.w3.org/2000/svg" width="600" height="600" viewBox="0 0 450.000000 450.000000"><path d="M93.9 55.4c-.2.2-2.4.6-4.9.9-7.4 1-8.8 1.5-17.7 5.7-10.8 5.3-20.2 14.3-25.4 24.5-4.1 7.8-4.8 9.9-7.9 23.5-1.2 5.2-4.9 20.5-8.2 34-3.3 13.5-6.2 25.6-6.4 27-.3 1.4-2.7 11.5-5.4 22.5C-.2 268.2.3 265.8 1.9 269.7c2.1 5.2 4.1 5.8 22.6 6.3l16.9.5 1.2 5.8c1.2 6.1 2.4 8.5 2.4 4.9 0-7.5 6.7-14.3 14.2-14.6l4.3-.1-.2-8.2c-.4-19 9-38.6 24.7-51.7 2.5-2 8.1-5.5 12.5-7.6 37.6-18.3 82.1 2.3 93.1 43 2.4 8.9 2.4 25.4-.1 34-12.2 43.3-60 62.7-98.4 40-5.2-3-5.5-3.1-8.6-1.6-1.8.9-4.4 1.6-5.7 1.6-3.9 0-5.7 2.1-6.4 7.5l-.6 5 4.6 3.3c7.6 5.4 22.7 12.1 32.3 14.1 8.7 1.9 27.9 2.3 35.8.6 34.5-7 63-35.7 69.8-70.1l1.2-5.9 6.8-.2c6.2-.1 6.7 0 6.8 2 .2 5.6 4.2 18.4 8.4 26.7 14.8 29.4 43.1 47.5 76 48.6 35.6 1.1 66.1-17.1 82.4-49.3 3.3-6.6 8.1-21.9 8.1-25.9V276h34.2l3.4-3.4c2.1-2.1 3.4-4.4 3.4-5.9 0-1.4-1.6-9.2-3.6-17.4-1.9-8.1-3.7-15.5-3.9-16.3-.2-.8-2.2-9.2-4.5-18.5-9.5-39.3-15.2-62.8-15.5-64.4-.1-.9-.8-3.6-1.5-6.1-.7-2.5-1.4-5.4-1.6-6.5-3-15.5-10.9-44.2-14-50.4-9.5-19.1-32.2-32.3-55-31.8-6.5.2-7.7.5-10 2.8-3 3.1-4.1 9.2-2.2 12.8 2.3 4.3 5.8 6 13.3 6.5 16.2 1.2 28.1 8.1 34.1 19.8 1.9 3.7 7.4 23.8 9.9 35.8.2.8 2.6 10.7 5.3 22 2.8 11.3 7.4 30.2 10.2 42 2.8 11.8 6.9 28.8 9.1 37.8 2.1 9 3.9 16.9 3.9 17.7 0 .9-1.9 1.2-7.2 1.1l-7.2-.1-1.2-6c-2.5-12.2-6.4-21.5-13.7-32.3-8-12-21.9-24.9-25.6-23.7-4.5 1.4-10.1 9.7-10.1 15 0 1.6 2.9 5.2 8.8 11.2 7.1 7.1 9.6 10.4 12.9 17.3 11 22.8 9.3 47.1-4.8 68.1-3.9 5.9-14.1 15.8-18.6 18.3-13.8 7.4-22.2 9.8-33.8 10-17.4.2-30.7-4.2-43.2-14.3-16.5-13.3-25.3-32.5-24.8-53.6.4-11.5.7-13.3 4-22.1 2-5.3 2.2-6.4.9-6.4-2.6 0-7.2-2.9-9.3-5.8-1.7-2.5-2.7-5.8-3-10-.4-6.1-9 10.9-12.5 24.8l-2.4 9.5-6.6.2c-5.8.2-6.6 0-6.6-1.6 0-4.4-4.4-18.4-8.4-26.6-18-36.9-59-56.5-99.2-47.5-32.3 7.3-60.1 35.8-66.7 68.5l-1.4 7-6.4.2c-3.5.1-6.9 0-7.5-.2-.9-.3-.7-2.3.6-7.2 1.5-5.8 11-44.9 11.6-47.8.1-.6.9-3.7 1.7-7 .9-3.3 1.8-7.1 2.1-8.5.2-1.4 1.6-7.4 3.1-13.4s2.8-11.6 3-12.5c.2-.9 1.7-7 3.3-13.6 1.6-6.6 4.5-18.3 6.2-26 3.8-16.1 6.7-22.9 12.3-28.6 3.2-3.2 10.1-7.8 12.7-8.4.3-.1 2.3-.7 4.5-1.3 2.2-.6 7.3-1.5 11.4-1.8 6-.6 8-1.2 10.3-3.3 5.7-5 4-15.5-2.8-18.1-2.4-1-12.6-1.4-13.5-.6z"/><path d="M340 149.2c-3.9 13.2-11.6 20.7-25 24.4-3.5 1-3.9 1.2-1.8 1.3 4.6.2 13.5 4.7 18 9.3 4.6 4.6 7.4 9.5 9.4 16.8 1.1 4 1.2 4.1 1.3 1.5.2-4.4 4.7-13.4 8.9-17.8 4.4-4.6 9.9-7.6 16.7-9.2l5-1.2-4.3-.7c-11.7-1.8-24.2-13.8-25.9-24.9-.7-4.4-.8-4.3-2.3.5zM286.8 181.7c-3.7 1.4-6.6 2.9-6.3 3.3.3.4 2 1.1 3.9 1.4 4.5.9 9.4 6.4 10.2 11.6.4 2.2.9 4 1.3 4 .3 0 2.9-.7 5.6-1.6 2.8-.8 8.5-1.7 12.9-1.9 4.3-.2 8.1-.7 8.5-1 .3-.4-.8-2-2.6-3.5-3.2-2.9-8.8-5-13.1-5-2.5 0-10.2-3.6-10.2-4.8 0-.4-.8-1.7-1.8-2.9l-1.7-2.1-6.7 2.5zM259.9 182.2c0 .2-.2 1-.4 1.9-1.2 6.5-6.4 12.2-13.5 15.2l-3.5 1.4 3.3.7c4.5 1 12 8.3 12.8 12.4.8 3.8 1.9 4.9 2.1 2.1.2-2.4 3.5-7.9 6.4-10.5 1.1-1 4-2.6 6.2-3.5 3.9-1.6 4-1.7 1.7-2.4-6.8-2-13.8-9.3-14.2-14.9-.2-2.2-.6-3.3-.9-2.4zM58.6 293.2c-.9 4.7-7.5 11.4-12.9 13l-4 1.2 3.3.9c1.8.4 4.4 1.6 5.8 2.5 3.6 2.3 8.2 9.1 8.3 12.1 0 2.1.5 1.6 2.4-2.7 2.8-6.2 5.9-9 12.4-11.4 2.5-.9 3.8-1.7 2.8-1.8-2.6 0-8.9-3.4-11.2-6-1.1-1.2-2.9-4.2-4.1-6.8l-2.1-4.6-.7 3.6z"/></svg>