<?xml version="1.0" standalone="no"?>
<!DOCTYPE svg PUBLIC "-//W3C//DTD SVG 20010904//EN"
 "http://www.w3.org/TR/2001/REC-SVG-20010904/DTD/svg10.dtd">
<svg version="1.0" xmlns="http://www.w3.org/2000/svg"
 width="450.000000pt" height="450.000000pt" viewBox="0 0 450.000000 450.000000"
 preserveAspectRatio="xMidYMid meet">
<metadata>
Created by potrace 1.11, written by Peter Selinger 2001-2013
</metadata>
<g transform="translate(0.000000,450.000000) scale(0.100000,-0.100000)"
fill="#000000" stroke="none">
<path d="M939 3946 c-2 -2 -24 -6 -49 -9 -74 -10 -88 -15 -177 -57 -108 -53
-202 -143 -254 -245 -41 -78 -48 -99 -79 -235 -12 -52 -49 -205 -82 -340 -33
-135 -62 -256 -64 -270 -3 -14 -27 -115 -54 -225 -182 -747 -177 -723 -161
-762 21 -52 41 -58 226 -63 l169 -5 12 -58 c12 -61 24 -85 24 -49 0 75 67 143
142 146 l43 1 -2 82 c-4 190 90 386 247 517 25 20 81 55 125 76 376 183 821
-23 931 -430 24 -89 24 -254 -1 -340 -122 -433 -600 -627 -984 -400 -52 30
-55 31 -86 16 -18 -9 -44 -16 -57 -16 -39 0 -57 -21 -64 -75 l-6 -50 46 -33
c76 -54 227 -121 323 -141 87 -19 279 -23 358 -6 345 70 630 357 698 701 l12
59 68 2 c62 1 67 0 68 -20 2 -56 42 -184 84 -267 148 -294 431 -475 760 -486
356 -11 661 171 824 493 33 66 81 219 81 259 l0 24 171 0 171 0 34 34 c21 21
34 44 34 59 0 14 -16 92 -36 174 -19 81 -37 155 -39 163 -2 8 -22 92 -45 185
-95 393 -152 628 -155 644 -1 9 -8 36 -15 61 -7 25 -14 54 -16 65 -30 155
-109 442 -140 504 -95 191 -322 323 -550 318 -65 -2 -77 -5 -100 -28 -30 -31
-41 -92 -22 -128 23 -43 58 -60 133 -65 162 -12 281 -81 341 -198 19 -37 74
-238 99 -358 2 -8 26 -107 53 -220 28 -113 74 -302 102 -420 28 -118 69 -288
91 -378 21 -90 39 -169 39 -177 0 -9 -19 -12 -72 -11 l-72 1 -12 60 c-25 122
-64 215 -137 323 -80 120 -219 249 -256 237 -45 -14 -101 -97 -101 -150 0 -16
29 -52 88 -112 71 -71 96 -104 129 -173 110 -228 93 -471 -48 -681 -39 -59
-141 -158 -186 -183 -138 -74 -222 -98 -338 -100 -174 -2 -307 42 -432 143
-165 133 -253 325 -248 536 4 115 7 133 40 221 20 53 22 64 9 64 -26 0 -72 29
-93 58 -17 25 -27 58 -30 100 -4 61 -90 -109 -125 -248 l-24 -95 -66 -2 c-58
-2 -66 0 -66 16 0 44 -44 184 -84 266 -180 369 -590 565 -992 475 -323 -73
-601 -358 -667 -685 l-14 -70 -64 -2 c-35 -1 -69 0 -75 2 -9 3 -7 23 6 72 15
58 110 449 116 478 1 6 9 37 17 70 9 33 18 71 21 85 2 14 16 74 31 134 15 60
28 116 30 125 2 9 17 70 33 136 16 66 45 183 62 260 38 161 67 229 123 286 32
32 101 78 127 84 3 1 23 7 45 13 22 6 73 15 114 18 60 6 80 12 103 33 57 50
40 155 -28 181 -24 10 -126 14 -135 6z"/>
<path d="M3400 3008 c-39 -132 -116 -207 -250 -244 -35 -10 -39 -12 -18 -13
46 -2 135 -47 180 -93 46 -46 74 -95 94 -168 11 -40 12 -41 13 -15 2 44 47
134 89 178 44 46 99 76 167 92 l50 12 -43 7 c-117 18 -242 138 -259 249 -7 44
-8 43 -23 -5z"/>
<path d="M2868 2683 c-37 -14 -66 -29 -63 -33 3 -4 20 -11 39 -14 45 -9 94
-64 102 -116 4 -22 9 -40 13 -40 3 0 29 7 56 16 28 8 85 17 129 19 43 2 81 7
85 10 3 4 -8 20 -26 35 -32 29 -88 50 -131 50 -25 0 -102 36 -102 48 0 4 -8
17 -18 29 l-17 21 -67 -25z"/>
<path d="M2599 2678 c0 -2 -2 -10 -4 -19 -12 -65 -64 -122 -135 -152 l-35 -14
33 -7 c45 -10 120 -83 128 -124 8 -38 19 -49 21 -21 2 24 35 79 64 105 11 10
40 26 62 35 39 16 40 17 17 24 -68 20 -138 93 -142 149 -2 22 -6 33 -9 24z"/>
<path d="M586 1568 c-9 -47 -75 -114 -129 -130 l-40 -12 33 -9 c18 -4 44 -16
58 -25 36 -23 82 -91 83 -121 0 -21 5 -16 24 27 28 62 59 90 124 114 25 9 38
17 28 18 -26 0 -89 34 -112 60 -11 12 -29 42 -41 68 l-21 46 -7 -36z"/>
</g>
</svg>
